HIERARCHY
ROOT hip
{
  OFFSET 0 0 0
  CHANNELS 6 Xposition Yposition Zposition Zrotation Yrotation Xrotation
  JOINT abdomen
  {
    OFFSET 0 20.6881 -0.73152
    CHANNELS 3 Zrotation Xrotation Yrotation
    JOINT chest
    {
      OFFSET 0 11.7043 -0.48768
      CHANNELS 3 Zrotation Xrotation Yrotation
      JOINT neck
      {
        OFFSET 0 22.1894 -2.19456
        CHANNELS 3 Zrotation Xrotation Yrotation
        JOINT head
        {
          OFFSET -0.24384 7.07133 1.2192
          CHANNELS 3 Zrotation Xrotation Yrotation
          JOINT leftEye
          {
            OFFSET 4.14528 8.04674 8.04672
            CHANNELS 3 Zrotation Xrotation Yrotation
            End Site
            {
              OFFSET 1 0 0
            }
          }
          JOINT rightEye
          {
            OFFSET -3.6576 8.04674 8.04672
            CHANNELS 3 Zrotation Xrotation Yrotation
            End Site
            {
              OFFSET 1 0 0
            }
          }
        }
      }
      JOINT rCollar
      {
        OFFSET -2.68224 19.2634 -4.8768
        CHANNELS 3 Zrotation Xrotation Yrotation
        JOINT rShldr
        {
          OFFSET -8.77824 -1.95073 1.46304
          CHANNELS 3 Zrotation Xrotation Yrotation
          JOINT rForeArm
          {
            OFFSET -28.1742 -1.7115 0.48768
            CHANNELS 3 Zrotation Xrotation Yrotation
            JOINT rHand
            {
              OFFSET -22.5879 0.773209 7.07136
              CHANNELS 3 Zrotation Xrotation Yrotation
              JOINT rThumb1
              {
                OFFSET -1.2192 -0.487915 3.41376
                CHANNELS 3 Zrotation Xrotation Yrotation
                JOINT rThumb2
                {
                  OFFSET -3.37035 -0.52449 3.41376
                  CHANNELS 3 Zrotation Xrotation Yrotation
                  End Site
                  {
                    OFFSET -1.78271 -1.18214 1.43049
                  }
                }
              }
              JOINT rIndex1
              {
                OFFSET -7.75947 0.938293 5.60832
                CHANNELS 3 Zrotation Xrotation Yrotation
                JOINT rIndex2
                {
                  OFFSET -2.54057 -0.884171 1.56538
                  CHANNELS 3 Zrotation Xrotation Yrotation
                  End Site
                  {
                    OFFSET -1.62519 -0.234802 1.16502
                  }
                }
              }
              JOINT rMid1
              {
                OFFSET -8.24714 1.18213 3.41376
                CHANNELS 3 Zrotation Xrotation Yrotation
                JOINT rMid2
                {
                  OFFSET -3.10165 -0.590103 1.0647
                  CHANNELS 3 Zrotation Xrotation Yrotation
                  End Site
                  {
                    OFFSET -2.48547 -0.328903 0.83742
                  }
                }
              }
              JOINT rRing1
              {
                OFFSET -8.82822 0.546677 1.51678
                CHANNELS 3 Zrotation Xrotation Yrotation
                JOINT rRing2
                {
                  OFFSET -2.60934 -0.819778 -0.0198488
                  CHANNELS 3 Zrotation Xrotation Yrotation
                  End Site
                  {
                    OFFSET -2.33842 -0.294052 0.168128
                  }
                }
              }
              JOINT rPinky1
              {
                OFFSET -8.27202 -0.0477905 -0.4584
                CHANNELS 3 Zrotation Xrotation Yrotation
                JOINT rPinky2
                {
                  OFFSET -1.82734 -0.647385 -0.700984
                  CHANNELS 3 Zrotation Xrotation Yrotation
                  End Site
                  {
                    OFFSET -1.69225 -0.51767 -0.607171
                  }
                }
              }
            }
          }
        }
      }
      JOINT lCollar
      {
        OFFSET 2.68224 19.2634 -4.8768
        CHANNELS 3 Zrotation Xrotation Yrotation
        JOINT lShldr
        {
          OFFSET 8.77824 -1.95073 1.46304
          CHANNELS 3 Zrotation Xrotation Yrotation
          JOINT lForeArm
          {
            OFFSET 28.1742 -1.7115 0.48768
            CHANNELS 3 Zrotation Xrotation Yrotation
            JOINT lHand
            {
              OFFSET 22.5879 0.773209 7.07136
              CHANNELS 3 Zrotation Xrotation Yrotation
              JOINT lThumb1
              {
                OFFSET 1.2192 -0.487915 3.41376
                CHANNELS 3 Zrotation Xrotation Yrotation
                JOINT lThumb2
                {
                  OFFSET 3.37035 -0.52449 3.41376
                  CHANNELS 3 Zrotation Xrotation Yrotation
                  End Site
                  {
                    OFFSET 1.78271 -1.18214 1.43049
                  }
                }
              }
              JOINT lIndex1
              {
                OFFSET 7.75947 0.938293 5.60832
                CHANNELS 3 Zrotation Xrotation Yrotation
                JOINT lIndex2
                {
                  OFFSET 2.54057 -0.884171 1.56538
                  CHANNELS 3 Zrotation Xrotation Yrotation
                  End Site
                  {
                    OFFSET 1.62519 -0.234802 1.16502
                  }
                }
              }
              JOINT lMid1
              {
                OFFSET 8.24714 1.18213 3.41376
                CHANNELS 3 Zrotation Xrotation Yrotation
                JOINT lMid2
                {
                  OFFSET 3.10165 -0.590103 1.0647
                  CHANNELS 3 Zrotation Xrotation Yrotation
                  End Site
                  {
                    OFFSET 2.48547 -0.328903 0.83742
                  }
                }
              }
              JOINT lRing1
              {
                OFFSET 8.82822 0.546677 1.51678
                CHANNELS 3 Zrotation Xrotation Yrotation
                JOINT lRing2
                {
                  OFFSET 2.60934 -0.819778 -0.0198488
                  CHANNELS 3 Zrotation Xrotation Yrotation
                  End Site
                  {
                    OFFSET 2.33842 -0.294052 0.168128
                  }
                }
              }
              JOINT lPinky1
              {
                OFFSET 8.27202 -0.0477905 -0.4584
                CHANNELS 3 Zrotation Xrotation Yrotation
                JOINT lPinky2
                {
                  OFFSET 1.82734 -0.647385 -0.700984
                  CHANNELS 3 Zrotation Xrotation Yrotation
                  End Site
                  {
                    OFFSET 1.69225 -0.51767 -0.607171
                  }
                }
              }
            }
          }
        }
      }
    }
  }
  JOINT rButtock
  {
    OFFSET -8.77824 4.35084 1.2192
    CHANNELS 3 Zrotation Xrotation Yrotation
    JOINT rThigh
    {
      OFFSET 0 -1.70687 -2.19456
      CHANNELS 3 Zrotation Xrotation Yrotation
      JOINT rShin
      {
        OFFSET 0 -36.8199 0.73152
        CHANNELS 3 Zrotation Xrotation Yrotation
        JOINT rFoot
        {
          OFFSET 0.73152 -45.1104 -5.12064
          CHANNELS 3 Zrotation Xrotation Yrotation
          End Site
          {
            OFFSET -1.1221 -3.69964 12.103
          }
        }
      }
    }
  }
  JOINT lButtock
  {
    OFFSET 8.77824 4.35084 1.2192
    CHANNELS 3 Zrotation Xrotation Yrotation
    JOINT lThigh
    {
      OFFSET 0 -1.70687 -2.19456
      CHANNELS 3 Zrotation Xrotation Yrotation
      JOINT lShin
      {
        OFFSET 0 -36.8199 0.73152
        CHANNELS 3 Zrotation Xrotation Yrotation
        JOINT lFoot
        {
          OFFSET -0.73152 -45.1104 -5.12064
          CHANNELS 3 Zrotation Xrotation Yrotation
          End Site
          {
            OFFSET 1.1221 -3.69964 12.103
          }
        }
      }
    }
  }
}
MOTION
Frames:	7
Frame Time:	0.00833333
4.77236 132.702 -84.4265 0.7169 -4.1299 4.8703 2.66683 12.8236 5.41659 1.03792 -7.56111 1.70188 -11.1284 2.06184 -4.1969 11.7035 -9.53928 -4.6064 -0.0 0.0 0.0 -0.0 0.0 0.0 -1.99874e-14 -2.02742e-14 1.58189e-14 79.9225 -18.9418 -0.932453 -9.49628 -3.81761 16.9 -0.0958391 8.55646 1.21205 1.57918e-11 3.26054e-10 -8.77193e-10 2.32871e-11 5.6402e-10 -1.51929e-09 1.58016e-11 3.26056e-10 -8.77197e-10 7.73091 5.47488 0.417314 1.5791e-11 3.26054e-10 -8.77194e-10 2.90554 0.965183 0.102902 1.5795e-11 3.26055e-10 -8.77193e-10 10.2786 0.731801 0.0259123 1.57883e-11 3.26054e-10 -8.77186e-10 2.22167 -0.733487 -0.20892 -1.99572e-14 -2.02776e-14 1.56139e-14 -81.8322 5.87987 0.130398 15.0629 -7.83739 -27.7913 0.00545962 0.97366 -0.136605 4.04556e-10 5.74558e-10 7.49164e-10 7.02272e-10 9.95468e-10 1.29615e-09 4.04553e-10 5.74555e-10 7.49165e-10 -7.73091 5.47488 -0.417314 4.04556e-10 5.74554e-10 7.49162e-10 -2.90554 0.965183 -0.102902 4.04547e-10 5.74555e-10 7.49163e-10 -10.2786 0.731801 -0.0259123 4.04559e-10 5.74556e-10 7.49157e-10 -2.22167 -0.733487 0.20892 -2.03217e-16 0.0 -3.88251e-19 -4.32797 -22.8017 -12.7352 -0.248863 33.0395 0.255981 2.7246 22.5938 -9.64326 2.03217e-16 0.0 3.88251e-19 4.65634 -21.1006 3.7947 0.293373 38.2754 -0.695733 4.00726 26.0311 -9.57498
4.80869 133.003 -84.3512 0.8001 -3.7327 4.7918 2.9516 13.1115 5.06126 0.981373 -7.79694 1.61024 -11.0967 1.40497 -4.20611 11.6159 -8.92533 -4.5806 -0.0 0.0 0.0 -0.0 0.0 0.0 -8.30421e-15 2.62913e-14 2.73224e-14 80.0824 -20.2864 -1.86392 -9.47805 -3.82155 16.841 -0.0678942 7.31863 1.03433 -2.53611e-10 5.04904e-10 -1.07824e-09 -4.42864e-10 8.7386e-10 -1.86393e-09 -2.53598e-10 5.04906e-10 -1.07825e-09 7.73091 5.47488 0.417314 -2.53611e-10 5.04905e-10 -1.07824e-09 2.90554 0.965183 0.102902 -2.53606e-10 5.04905e-10 -1.07824e-09 10.2786 0.731801 0.0259123 -2.53616e-10 5.04905e-10 -1.07824e-09 2.22167 -0.733487 -0.20892 -8.28085e-15 2.62874e-14 2.7119e-14 -82.1837 5.14194 -0.120009 13.9633 -6.94137 -25.4651 0.00364971 1.3458 -0.189079 5.62639e-11 2.15899e-10 1.04622e-09 9.97668e-11 3.73705e-10 1.81009e-09 5.62608e-11 2.15898e-10 1.04622e-09 -7.73091 5.47488 -0.417314 5.62654e-11 2.15898e-10 1.04622e-09 -2.90554 0.965183 -0.102902 5.6255e-11 2.15898e-10 1.04622e-09 -10.2786 0.731801 -0.0259123 5.62663e-11 2.15898e-10 1.04621e-09 -2.22167 -0.733487 0.20892 -2.03217e-16 0.0 -3.88251e-19 -4.48515 -22.6031 -13.1502 -0.237075 32.4045 0.251077 2.60108 22.272 -9.39466 2.03217e-16 0.0 3.88251e-19 4.5354 -21.3439 3.4813 0.292066 38.044 -0.676072 3.54445 24.8831 -8.79776
4.8086 133.263 -84.2118 0.8738 -3.4915 4.6173 3.14602 13.3099 4.76151 0.966996 -7.94129 1.53304 -11.0707 0.849377 -4.23267 11.589 -8.4784 -4.58571 -0.0 0.0 0.0 -0.0 0.0 0.0 9.35688e-16 3.33982e-14 3.62782e-14 80.1593 -21.0598 -2.67778 -9.46187 -3.82069 16.796 -0.0471997 6.18834 0.873146 -2.69135e-10 5.19766e-10 -6.44571e-10 -4.68339e-10 9.00145e-10 -1.11258e-09 -2.69119e-10 5.19768e-10 -6.44581e-10 7.73091 5.47488 0.417314 -2.69134e-10 5.19766e-10 -6.44574e-10 2.90554 0.965183 0.102902 -2.69128e-10 5.19767e-10 -6.44575e-10 10.2786 0.731801 0.0259123 -2.69139e-10 5.19767e-10 -6.44568e-10 2.22167 -0.733487 -0.20892 9.52855e-16 3.33935e-14 3.60794e-14 -82.5208 4.53789 -0.312507 12.9612 -6.14605 -23.4864 0.00336541 1.65622 -0.232832 -2.68585e-10 -2.34581e-10 7.22371e-10 -4.63541e-10 -4.06612e-10 1.25062e-09 -2.68588e-10 -2.34581e-10 7.22374e-10 -7.73091 5.47488 -0.417314 -2.68583e-10 -2.34581e-10 7.22371e-10 -2.90554 0.965183 -0.102902 -2.68594e-10 -2.34581e-10 7.22368e-10 -10.2786 0.731801 -0.0259123 -2.68584e-10 -2.34582e-10 7.22358e-10 -2.22167 -0.733487 0.20892 -2.03217e-16 0.0 -3.88251e-19 -4.60124 -22.367 -13.3491 -0.224985 31.7219 0.244398 2.50791 22.0974 -9.15841 2.03217e-16 0.0 3.88251e-19 4.39572 -21.5219 3.16473 0.28834 37.6987 -0.655352 3.15912 23.882 -8.10481
4.81112 133.445 -84.0279 0.9594 -3.1419 4.3938 3.2044 13.4041 4.53407 1.01652 -7.9437 1.47445 -11.0734 0.389863 -4.29169 11.6699 -8.24726 -4.63698 -0.0 0.0 0.0 -0.0 0.0 0.0 7.1387e-15 -3.04231e-14 4.24553e-14 80.1806 -21.2058 -3.28571 -9.41465 -3.79177 16.7103 -0.0315964 5.18872 0.731153 1.97894e-10 2.22652e-10 1.07063e-09 3.43924e-10 3.87123e-10 1.8523e-09 1.97907e-10 2.22654e-10 1.07062e-09 7.73091 5.47488 0.417314 1.97895e-10 2.22652e-10 1.07063e-09 2.90554 0.965183 0.102902 1.97901e-10 2.22652e-10 1.07063e-09 10.2786 0.731801 0.0259123 1.9789e-10 2.22651e-10 1.07063e-09 2.22167 -0.733487 -0.20892 7.14868e-15 -3.04299e-14 4.22654e-14 -82.8445 3.97042 -0.480715 12.0869 -5.48113 -21.8452 0.00499594 1.91884 -0.269786 -6.11916e-10 -9.62285e-10 -8.35549e-10 -1.06168e-09 -1.6662e-09 -1.44227e-09 -6.11919e-10 -9.62284e-10 -8.35544e-10 -7.73091 5.47488 -0.417314 -6.11914e-10 -9.62284e-10 -8.3555e-10 -2.90554 0.965183 -0.102902 -6.11925e-10 -9.62284e-10 -8.35552e-10 -10.2786 0.731801 -0.0259123 -6.11915e-10 -9.62285e-10 -8.35563e-10 -2.22167 -0.733487 0.20892 -2.03217e-16 0.0 -3.88251e-19 -4.69043 -22.0728 -13.2953 -0.212255 30.9571 0.234672 2.45884 22.1524 -8.94176 2.03217e-16 0.0 3.88251e-19 4.21708 -21.61 2.83746 0.281472 37.1905 -0.632451 2.83817 23.0549 -7.47418
4.79791 133.559 -83.8584 1.0707 -2.9975 4.309 3.16641 13.4497 4.33596 1.09508 -7.86966 1.42193 -11.0844 -0.0245781 -4.36674 11.8372 -8.1312 -4.70847 -0.0 0.0 0.0 -0.0 0.0 0.0 1.32218e-14 -1.41828e-13 4.60435e-14 80.1724 -20.6593 -3.78639 -9.41068 -3.78813 16.7049 -0.0180062 4.07397 0.573375 9.86953e-10 -3.18748e-10 3.69006e-09 1.71543e-09 -5.48223e-10 6.37925e-09 9.86961e-10 -3.18746e-10 3.69006e-09 7.73091 5.47488 0.417314 9.86954e-10 -3.18748e-10 3.69006e-09 2.90554 0.965183 0.102902 9.86959e-10 -3.18749e-10 3.69006e-09 10.2786 0.731801 0.0259123 9.8695e-10 -3.1875e-10 3.69007e-09 2.22167 -0.733487 -0.20892 1.32237e-14 -1.41838e-13 4.58665e-14 -83.1314 3.45322 -0.606093 11.3835 -5.00369 -20.4781 0.00568551 2.05878 -0.289478 -1.00943e-09 -1.93478e-09 -3.23511e-09 -1.75561e-09 -3.34917e-09 -5.59025e-09 -1.00943e-09 -1.93478e-09 -3.2351e-09 -7.73091 5.47488 -0.417314 -1.00943e-09 -1.93478e-09 -3.23511e-09 -2.90554 0.965183 -0.102902 -1.00944e-09 -1.93478e-09 -3.23511e-09 -10.2786 0.731801 -0.0259123 -1.00943e-09 -1.93478e-09 -3.23512e-09 -2.22167 -0.733487 0.20892 -2.03217e-16 0.0 -3.88251e-19 -4.77981 -21.7082 -13.0659 -0.198955 30.1197 0.223257 2.4295 22.3938 -8.69667 2.03217e-16 0.0 3.88251e-19 3.99681 -21.6173 2.48936 0.272478 36.5543 -0.608174 2.56465 22.4011 -6.87903
4.79619 133.647 -83.7207 1.2204 -2.7784 4.2858 3.0988 13.4384 4.16301 1.1814 -7.78359 1.37565 -11.0681 -0.343901 -4.43539 12.0023 -8.09613 -4.78419 -0.0 0.0 0.0 -0.0 0.0 0.0 1.83328e-14 -2.47518e-13 4.74202e-14 80.1583 -19.6045 -4.26787 -9.46862 -3.82208 16.8126 -0.00917727 2.97662 0.418596 1.70392e-09 -8.22229e-10 6.04136e-09 2.96166e-09 -1.41819e-09 1.04425e-08 1.70392e-09 -8.22227e-10 6.04136e-09 7.73091 5.47488 0.417314 1.70392e-09 -8.22229e-10 6.04137e-09 2.90554 0.965183 0.102902 1.70393e-09 -8.2223e-10 6.04137e-09 10.2786 0.731801 0.0259123 1.70392e-09 -8.22232e-10 6.04137e-09 2.22167 -0.733487 -0.20892 1.83295e-14 -2.4753e-13 4.72576e-14 -83.3853 3.19515 -0.627917 10.8575 -4.67585 -19.4323 0.00564083 2.10084 -0.295393 -1.34002e-09 -2.75924e-09 -5.391e-09 -2.33306e-09 -4.77583e-09 -9.31706e-09 -1.34002e-09 -2.75924e-09 -5.39099e-09 -7.73091 5.47488 -0.417314 -1.34002e-09 -2.75924e-09 -5.391e-09 -2.90554 0.965183 -0.102902 -1.34002e-09 -2.75924e-09 -5.391e-09 -10.2786 0.731801 -0.0259123 -1.34002e-09 -2.75924e-09 -5.39101e-09 -2.22167 -0.733487 0.20892 -2.03217e-16 0.0 -3.88251e-19 -4.82878 -21.3276 -12.6904 -0.186155 29.2804 0.212201 2.39908 22.6703 -8.43942 2.03217e-16 0.0 3.88251e-19 3.78708 -21.5919 2.14653 0.262938 35.874 -0.584972 2.34266 21.8683 -6.36753
4.81648 133.689 -83.5904 1.379 -2.3176 4.3765 3.0684 13.3618 4.01102 1.25398 -7.74993 1.3357 -10.9882 -0.518115 -4.47518 12.0767 -8.10796 -4.8482 -0.0 0.0 0.0 -0.0 0.0 0.0 2.16197e-14 -2.94195e-13 4.69629e-14 80.1588 -18.2248 -4.82022 -9.60661 -3.90573 17.0658 -0.00505301 2.02925 0.285313 1.95468e-09 -1.00559e-09 6.95218e-09 3.39809e-09 -1.73507e-09 1.20161e-08 1.95468e-09 -1.00558e-09 6.95218e-09 7.73091 5.47488 0.417314 1.95468e-09 -1.00559e-09 6.95218e-09 2.90554 0.965183 0.102902 1.95468e-09 -1.00559e-09 6.95218e-09 10.2786 0.731801 0.0259123 1.95468e-09 -1.00559e-09 6.95219e-09 2.22167 -0.733487 -0.20892 2.16175e-14 -2.94208e-13 4.68138e-14 -83.6106 3.40502 -0.485387 10.5076 -4.45562 -18.7569 0.00525733 2.06985 -0.291026 -1.48258e-09 -3.04283e-09 -6.21791e-09 -2.58173e-09 -5.26646e-09 -1.07464e-08 -1.48258e-09 -3.04283e-09 -6.2179e-09 -7.73091 5.47488 -0.417314 -1.48257e-09 -3.04283e-09 -6.21791e-09 -2.90554 0.965183 -0.102902 -1.48258e-09 -3.04283e-09 -6.21791e-09 -10.2786 0.731801 -0.0259123 -1.48257e-09 -3.04282e-09 -6.21792e-09 -2.22167 -0.733487 0.20892 -2.03217e-16 0.0 -3.88251e-19 -4.79503 -20.9858 -12.1974 -0.174731 28.5101 0.203442 2.34983 22.8302 -8.18708 2.03217e-16 0.0 3.88251e-19 3.63878 -21.5822 1.83465 0.254127 35.2336 -0.565073 2.17731 21.405 -5.98882
